<?xml version="1.0" encoding="utf-8" ?>
<svg xmlns="http://www.w3.org/2000/svg" xmlns:xlink="http://www.w3.org/1999/xlink" width="32" height="25.6" viewBox="0 0 32 25.6">
	<defs>
		<clipPath id="clipPath1443518382">
			<path transform="matrix(1 0 0 1 -0 -0)" d="M0 0L32 0L32 25.6L0 25.6L0 0Z" fill-rule="nonzero"/>
		</clipPath>
	</defs>
	<g clip-path="url(#clipPath1443518382)">
		<path transform="matrix(1 0 0 1 0 2.56001)" d="M31.2 14.08L30.4 14.08L30.4 9.756C30.4 9.248 30.145 8.76 29.695 8.4L24.7 4.404C24.25 4.044 23.64 3.84 23.005 3.84L20.8 3.84L20.8 1.92C20.8 0.86 19.725 0 18.4 0L2.4 0C1.075 0 0 0.86 0 1.92L0 14.72C0 15.78 1.075 16.64 2.4 16.64L3.2 16.64C3.2 18.76 5.35 20.48 8 20.48C10.65 20.48 12.8 18.76 12.8 16.64L19.2 16.64C19.2 18.76 21.35 20.48 24 20.48C26.65 20.48 28.8 18.76 28.8 16.64L31.2 16.64C31.64 16.64 32 16.352 32 16L32 14.72C32 14.368 31.64 14.08 31.2 14.08ZM8 18.56C6.675 18.56 5.6 17.7 5.6 16.64C5.6 15.58 6.675 14.72 8 14.72C9.325 14.72 10.4 15.58 10.4 16.64C10.4 17.7 9.325 18.56 8 18.56ZM15.2 8.64C15.2 8.816 15.02 8.96 14.8 8.96L12 8.96L12 11.2C12 11.376 11.82 11.52 11.6 11.52L9.2 11.52C8.98 11.52 8.8 11.376 8.8 11.2L8.8 8.96L6 8.96C5.78 8.96 5.6 8.816 5.6 8.64L5.6 6.72C5.6 6.544 5.78 6.4 6 6.4L8.8 6.4L8.8 4.16C8.8 3.984 8.98 3.84 9.2 3.84L11.6 3.84C11.82 3.84 12 3.984 12 4.16L12 6.4L14.8 6.4C15.02 6.4 15.2 6.544 15.2 6.72L15.2 8.64ZM24 18.56C22.675 18.56 21.6 17.7 21.6 16.64C21.6 15.58 22.675 14.72 24 14.72C25.325 14.72 26.4 15.58 26.4 16.64C26.4 17.7 25.325 18.56 24 18.56ZM28 10.24L20.8 10.24L20.8 5.76L23.005 5.76L28 9.756L28 10.24Z" fill-rule="nonzero" fill="rgb(255, 255, 255)"/>
	</g>
</svg>
