<?xml version="1.0" encoding="utf-8" ?>
<svg xmlns="http://www.w3.org/2000/svg" xmlns:xlink="http://www.w3.org/1999/xlink" width="24" height="18.963" viewBox="0 0 24 18.963">
	<defs>
		<clipPath id="clipPath6983594230">
			<path transform="matrix(1 0 0 1 0 0)" d="M0 0L24 0L24 18.963L0 18.963L0 0Z" fill-rule="nonzero"/>
		</clipPath>
	</defs>
	<g clip-path="url(#clipPath6983594230)">
		<path transform="matrix(1 0 0 1 0 0)" d="M8.66667 0C7.42083 0 6.3875 0.759259 6.09167 1.78519C6.05833 1.78519 6.03333 1.77778 6 1.77778C4.52917 1.77778 3.33333 2.84074 3.33333 4.14815C3.33333 4.32593 3.35833 4.5 3.40417 4.66667C2.1875 5.11111 1.33333 6.17037 1.33333 7.40741C1.33333 7.87407 1.46667 8.30741 1.67917 8.7C0.679167 9.21111 0 10.1593 0 11.2593C0 12.4926 0.85 13.5519 2.05833 13.9963C2.02083 14.1667 2 14.3407 2 14.5185C2 15.9926 3.34167 17.1852 5 17.1852C5.17083 17.1852 5.3375 17.1667 5.5 17.1407C5.9 18.1963 7.00833 18.963 8.33333 18.963C9.99167 18.963 11.3333 17.7704 11.3333 16.2963L11.3333 2.37037C11.3333 1.06296 10.1375 0 8.66667 0ZM24 11.2593C24 10.1593 23.3208 9.21111 22.3208 8.7C22.5375 8.30741 22.6667 7.87407 22.6667 7.40741C22.6667 6.17037 21.8125 5.11111 20.5958 4.66667C20.6375 4.5 20.6667 4.32593 20.6667 4.14815C20.6667 2.84074 19.4708 1.77778 18 1.77778C17.9667 1.77778 17.9375 1.78519 17.9083 1.78519C17.6125 0.759259 16.5792 0 15.3333 0C13.8625 0 12.6667 1.05926 12.6667 2.37037L12.6667 16.2963C12.6667 17.7704 14.0083 18.963 15.6667 18.963C16.9917 18.963 18.1 18.1963 18.5 17.1407C18.6625 17.1667 18.8292 17.1852 19 17.1852C20.6583 17.1852 22 15.9926 22 14.5185C22 14.3407 21.9792 14.1667 21.9417 13.9963C23.15 13.5519 24 12.4926 24 11.2593Z" fill-rule="nonzero" fill="rgb(55, 65, 81)"/>
	</g>
</svg>
