<?xml version="1.0" encoding="utf-8" ?>
<svg xmlns="http://www.w3.org/2000/svg" xmlns:xlink="http://www.w3.org/1999/xlink" width="21.5216" height="21.1302" viewBox="0 0 21.5216 21.1302">
	<defs>
		<clipPath id="clipPath9556163723">
			<path transform="matrix(1 0 0 1 0 0)" d="M0 0L21.5216 0L21.5216 21.1302L0 21.1302L0 0Z" fill-rule="nonzero"/>
		</clipPath>
	</defs>
	<g clip-path="url(#clipPath9556163723)">
		<path transform="matrix(1 0 0 1 0 0)" d="M14.8905 0.448981C14.4217 0.672575 14.0795 0.971169 13.9249 1.31523C13.7702 1.65929 13.7608 2.08398 14.0795 2.71304C14.3045 3.14804 14.7499 3.66929 15.1905 4.24586C15.6311 4.81773 16.0717 5.45992 16.2405 6.22398C16.4608 7.23179 16.1045 8.28648 15.8233 9.21461C15.678 9.68336 15.5514 10.1193 15.4952 10.4755C15.4389 10.8318 15.467 11.0943 15.5467 11.249C15.8327 11.7834 16.217 12.013 16.7186 12.088C17.2202 12.163 17.8483 12.0412 18.4764 11.7552C19.7374 11.1927 20.9749 9.97867 21.3545 8.88179C21.6545 8.02398 21.5655 5.92867 20.9655 4.04429C20.3702 2.16085 19.2874 0.503354 17.9092 0.112417C16.9858 -0.101802 15.692 0.0805419 14.8905 0.448981ZM3.61236 0.113356C2.23376 0.504762 1.1533 2.16226 0.553764 4.04898C-0.0457675 5.92867 -0.131549 8.02398 0.167045 8.88179C0.548607 9.97867 1.78564 11.1927 3.0447 11.7552C3.6733 12.0412 4.30142 12.163 4.80298 12.088C5.30454 12.013 5.68892 11.7834 5.97486 11.249C6.05454 11.0943 6.08267 10.8318 6.02642 10.4755C5.97017 10.1193 5.84361 9.68336 5.6983 9.21461C5.41705 8.28648 5.06079 7.23179 5.28111 6.22398C5.44986 5.45992 5.89048 4.81773 6.33111 4.24586C6.77173 3.66929 7.21704 3.14804 7.44205 2.71304C7.7608 2.08398 7.75142 1.65929 7.59673 1.31523C7.44205 0.971169 7.09986 0.673044 6.63111 0.44945C5.64673 0.121325 4.62017 -0.166956 3.61236 0.113356ZM6.38267 5.68492C6.24205 5.96148 6.1483 6.22867 6.08736 6.49117C6.67798 6.78648 7.20298 7.13804 7.41392 7.44742C8.5858 9.14898 8.9983 12.4865 9.05455 15.3646C9.10611 18.2427 8.84361 21.0365 8.84361 21.0365L9.67798 21.1302C9.67798 21.1302 9.94986 18.2896 9.89361 15.3459C9.84204 12.4068 9.50455 8.99898 8.10767 6.96929C7.71861 6.40679 7.06236 5.99898 6.38267 5.68492ZM15.1389 5.68492C14.4592 5.99898 13.803 6.40679 13.4139 6.96929C12.017 8.99898 11.6795 12.4068 11.628 15.3459C11.5717 18.2896 11.8436 21.1302 11.8436 21.1302L12.678 21.0365C12.678 21.0365 12.4155 18.2427 12.467 15.3646C12.5233 12.4865 12.9358 9.14898 14.1077 7.44742C14.3186 7.13804 14.8436 6.78648 15.4342 6.49117C15.3733 6.20523 15.2561 5.90992 15.1389 5.68492Z" fill-rule="nonzero" fill="rgb(55, 65, 81)"/>
	</g>
</svg>
