<?xml version="1.0" encoding="utf-8" ?>
<svg xmlns="http://www.w3.org/2000/svg" xmlns:xlink="http://www.w3.org/1999/xlink" width="32" height="32" viewBox="0 0 32 32">
	<defs>
		<clipPath id="clipPath6079256312">
			<path transform="matrix(1 0 0 1 0 0)" d="M0 0L32 0L32 32L0 32L0 0Z" fill-rule="nonzero"/>
		</clipPath>
	</defs>
	<g clip-path="url(#clipPath6079256312)">
		<defs>
			<clipPath id="clipPath7415453130">
				<path transform="matrix(1 0 0 1 -0 -0)" d="M0 0L32 0L32 32L0 32L0 0Z" fill-rule="nonzero"/>
			</clipPath>
		</defs>
		<g clip-path="url(#clipPath7415453130)">
			<path transform="matrix(1 0 0 1 0 0.00174633)" d="M27.9438 6.99825C25.8062 7.0295 24.05 8.77325 24.0063 10.9108C23.975 12.4295 24.7875 13.7608 26.0063 14.4608L26.0063 21.4983C26.0063 25.0795 22.8687 27.9983 19.0063 27.9983C15.2563 27.9983 12.1813 25.242 12.0125 21.7983C16.5625 20.8608 20 16.8233 20 11.9983L20 2.28575C20 1.57325 19.4937 0.954504 18.7938 0.817004L14.8625 0.0295037C14.05 -0.132996 13.2625 0.392004 13.1 1.2045L12.9 2.18575C12.7375 2.99825 13.2625 3.78575 14.075 3.94825L15.9937 4.3295L15.9937 11.917C15.9937 15.2233 13.3562 17.9608 10.05 17.992C6.7125 18.0233 3.99375 15.3233 3.99375 11.992L3.99375 4.33575L5.9125 3.9545C6.725 3.792 7.25 3.0045 7.0875 2.192L6.89375 1.21075C6.73125 0.398254 5.94375 -0.126746 5.13125 0.0357537L1.20625 0.810754C0.50625 0.954504 0 1.567 0 2.28575L0 11.9983C0 16.8295 3.44375 20.8733 8.00625 21.7983C8.16875 27.4483 13.0375 31.9983 19 31.9983C25.0625 31.9983 30 27.2858 30 21.4983L30 14.4608C31.1938 13.767 32 12.4795 32 10.9983C32 8.767 30.175 6.967 27.9438 6.99825ZM28 11.9983C27.45 11.9983 27 11.5483 27 10.9983C27 10.4483 27.45 9.99825 28 9.99825C28.55 9.99825 29 10.4483 29 10.9983C29 11.5483 28.55 11.9983 28 11.9983Z" fill-rule="nonzero" fill="rgb(255, 255, 255)"/>
		</g>
	</g>
</svg>
