<?xml version="1.0" encoding="utf-8" ?>
<svg xmlns="http://www.w3.org/2000/svg" xmlns:xlink="http://www.w3.org/1999/xlink" width="21.0001" height="23.9999" viewBox="0 0 21.0001 23.9999">
	<defs>
		<clipPath id="clipPath7395269524">
			<path transform="matrix(1 0 0 1 0 0)" d="M0 0L21.0001 0L21.0001 24L0 24L0 0Z" fill-rule="nonzero"/>
		</clipPath>
	</defs>
	<g clip-path="url(#clipPath7395269524)">
		<path transform="matrix(1 0 0 1 0 0)" d="M20.8119 4.51167C20.2958 2.39199 18.6036 0.665111 16.4989 0.118548C14.99 -0.273327 13.5458 0.357611 12.3205 1.25902C12.1681 1.37105 11.9942 1.43386 11.8283 1.51589L13.1558 2.36949C13.5036 2.59308 13.6048 3.05714 13.3808 3.40589C13.1717 3.73167 12.7119 3.86808 12.3444 3.63089L7.63296 0.60183C6.66265 0.0932359 5.59952 -0.16692 4.50124 0.118548C2.39655 0.66558 0.704368 2.39199 0.188274 4.51167C-0.28657 6.46261 0.168586 8.29964 1.19609 9.68808C2.29109 11.1679 2.72796 12.9065 2.89718 14.7201C3.10343 16.9307 3.3814 19.1339 3.87874 21.2976L4.24437 22.889C4.3939 23.5392 4.97046 24 5.63515 24C6.28999 24 6.86093 23.5523 7.01984 22.9143L8.63562 16.4259C8.84937 15.5671 9.61812 14.9653 10.4994 14.9653C11.3806 14.9653 12.1494 15.5676 12.3631 16.4259L13.9789 22.9143C14.1378 23.5523 14.7087 24 15.3636 24C16.0283 24 16.6048 23.5392 16.7544 22.889L17.12 21.2976C17.6173 19.1343 17.8948 16.9307 18.1016 14.7201C18.2708 12.906 18.7076 11.1679 19.8026 9.68808C20.8316 8.30011 21.2867 6.46308 20.8119 4.51167Z" fill-rule="nonzero" fill="rgb(55, 65, 81)"/>
	</g>
</svg>
